<svg xmlns="http://www.w3.org/2000/svg" viewBox="0 0 640 640" width="640" height="640" role="img" fill="none"><rect x="0" y="0" width="640" height="640" rx="0" fill="#F5F2EA"/><rect x="24" y="24" width="592" height="592" rx="18" fill="#FAF8F2" stroke="#D8D3C8" stroke-width="1.5"/><g transform="translate(56,52) scale(1.7)"><rect x="3" y="5" width="13" height="2" rx="1" fill="#0C0C0B"/><rect x="3" y="11" width="9" height="2" rx="1" fill="#0C0C0B"/><rect x="3" y="17" width="5" height="2" rx="1" fill="#0C0C0B"/><rect x="19" y="4" width="2" height="16" rx="1" fill="#B88932"/></g><text x="102" y="82" font-family="system-ui,-apple-system,'Segoe UI',Roboto,Helvetica,Arial,sans-serif" font-size="23" fill="#0C0C0B" font-weight="600" text-anchor="start" letter-spacing="0">Countorra</text><text x="584" y="82" font-family="ui-monospace,SFMono-Regular,Menlo,Consolas,'Liberation Mono',monospace" font-size="15" fill="#857F73" font-weight="600" text-anchor="end" letter-spacing="0.1em">ASSISTANT</text><line x1="56" y1="112" x2="584" y2="112" stroke="#D8D3C8" stroke-width="1.5"/><text x="56" y="172" font-family="system-ui,-apple-system,'Segoe UI',Roboto,Helvetica,Arial,sans-serif" font-size="35" fill="#0C0C0B" font-weight="600" text-anchor="start" letter-spacing="-0.015em">Ask your money</text><rect x="56" y="206" width="452" height="56" rx="14" fill="#EEEAE0" stroke="#D8D3C8" stroke-width="1.5"/><text x="78" y="242" font-family="system-ui,-apple-system,'Segoe UI',Roboto,Helvetica,Arial,sans-serif" font-size="20" fill="#171715" font-weight="400" text-anchor="start" letter-spacing="0">What did I spend this month?</text><rect x="56" y="282" width="528" height="186" rx="16" fill="#F1E6CC"/><text x="82" y="326" font-family="ui-monospace,SFMono-Regular,Menlo,Consolas,'Liberation Mono',monospace" font-size="15" fill="#8A6420" font-weight="600" text-anchor="start" letter-spacing="0.1em">YOU SPENT</text><text x="82" y="392" font-family="ui-monospace,SFMono-Regular,Menlo,Consolas,'Liberation Mono',monospace" font-size="54" fill="#0C0C0B" font-weight="600" text-anchor="start" letter-spacing="-0.02em">$4,182.60</text><text x="82" y="434" font-family="system-ui,-apple-system,'Segoe UI',Roboto,Helvetica,Arial,sans-serif" font-size="18" fill="#6F6B62" font-weight="400" text-anchor="start" letter-spacing="0">63 transactions · 8% less than last month</text><line x1="56" y1="556" x2="584" y2="556" stroke="#D8D3C8" stroke-width="1.5"/><text x="56" y="592" font-family="ui-monospace,SFMono-Regular,Menlo,Consolas,'Liberation Mono',monospace" font-size="16" fill="#857F73" font-weight="400" text-anchor="start" letter-spacing="0">Answered from your own records</text></svg>