<svg xmlns="http://www.w3.org/2000/svg" viewBox="0 0 640 640" width="640" height="640" role="img" fill="none"><rect x="0" y="0" width="640" height="640" rx="0" fill="#FAFAF8"/><rect x="24" y="24" width="592" height="592" rx="18" fill="#FFFFFF" stroke="#E7E5DF" stroke-width="1.5"/><g transform="translate(56,52) scale(1.7)"><rect x="3" y="5" width="13" height="2" rx="1" fill="#14130F"/><rect x="3" y="11" width="9" height="2" rx="1" fill="#14130F"/><rect x="3" y="17" width="5" height="2" rx="1" fill="#14130F"/><rect x="19" y="4" width="2" height="16" rx="1" fill="#1B3A5C"/></g><text x="102" y="82" font-family="system-ui,-apple-system,'Segoe UI',Roboto,Helvetica,Arial,sans-serif" font-size="23" fill="#14130F" font-weight="600" text-anchor="start" letter-spacing="0">Countorra</text><text x="584" y="82" font-family="ui-monospace,SFMono-Regular,Menlo,Consolas,'Liberation Mono',monospace" font-size="15" fill="#8A8577" font-weight="600" text-anchor="end" letter-spacing="0.1em">PROJECTION</text><line x1="56" y1="112" x2="584" y2="112" stroke="#E7E5DF" stroke-width="1.5"/><text x="56" y="172" font-family="system-ui,-apple-system,'Segoe UI',Roboto,Helvetica,Arial,sans-serif" font-size="35" fill="#14130F" font-weight="600" text-anchor="start" letter-spacing="-0.015em">Forecast</text><text x="56" y="224" font-family="ui-monospace,SFMono-Regular,Menlo,Consolas,'Liberation Mono',monospace" font-size="15" fill="#8A8577" font-weight="600" text-anchor="start" letter-spacing="0.1em">NEXT 60 DAYS</text><polyline points="56,400 136,372 216,384 296,336" fill="none" stroke="#14130F" stroke-width="3" stroke-linecap="round" stroke-linejoin="round"/><polyline points="296,336 376,300 456,320 584,268" fill="none" stroke="#1B3A5C" stroke-width="3" stroke-linecap="round" stroke-linejoin="round" stroke-dasharray="7 7"/><circle cx="296" cy="336" r="7" fill="#FFFFFF" stroke="#14130F" stroke-width="3"/><rect x="56" y="258" width="97.24000000000001" height="36" rx="999" fill="#F3F2EE"/><text x="104.62" y="282" font-family="system-ui,-apple-system,'Segoe UI',Roboto,Helvetica,Arial,sans-serif" font-size="17" fill="#201F1B" font-weight="600" text-anchor="middle" letter-spacing="0">Actual</text><rect x="168" y="258" width="128.86" height="36" rx="999" fill="#E9EEF3"/><text x="232.43" y="282" font-family="system-ui,-apple-system,'Segoe UI',Roboto,Helvetica,Arial,sans-serif" font-size="17" fill="#1B3A5C" font-weight="600" text-anchor="middle" letter-spacing="0">Projected</text><line x1="56" y1="452" x2="584" y2="452" stroke="#E7E5DF" stroke-width="1.5"/><text x="56" y="496" font-family="system-ui,-apple-system,'Segoe UI',Roboto,Helvetica,Arial,sans-serif" font-size="20" fill="#5C594E" font-weight="400" text-anchor="start" letter-spacing="0">Lowest projected</text><text x="584" y="496" font-family="ui-monospace,SFMono-Regular,Menlo,Consolas,'Liberation Mono',monospace" font-size="24" fill="#14130F" font-weight="500" text-anchor="end" letter-spacing="0">$9,140.00</text><text x="56" y="532" font-family="ui-monospace,SFMono-Regular,Menlo,Consolas,'Liberation Mono',monospace" font-size="17" fill="#8A8577" font-weight="400" text-anchor="start" letter-spacing="0">14 April 2026</text><line x1="56" y1="556" x2="584" y2="556" stroke="#E7E5DF" stroke-width="1.5"/><text x="56" y="592" font-family="ui-monospace,SFMono-Regular,Menlo,Consolas,'Liberation Mono',monospace" font-size="16" fill="#8A8577" font-weight="400" text-anchor="start" letter-spacing="0">A projection, never a promise</text></svg>