<svg xmlns="http://www.w3.org/2000/svg" viewBox="0 0 640 640" width="640" height="640" role="img" fill="none"><rect x="0" y="0" width="640" height="640" rx="0" fill="#FAFAF8"/><rect x="24" y="24" width="592" height="592" rx="18" fill="#FFFFFF" stroke="#E7E5DF" stroke-width="1.5"/><g transform="translate(56,52) scale(1.7)"><rect x="3" y="5" width="13" height="2" rx="1" fill="#14130F"/><rect x="3" y="11" width="9" height="2" rx="1" fill="#14130F"/><rect x="3" y="17" width="5" height="2" rx="1" fill="#14130F"/><rect x="19" y="4" width="2" height="16" rx="1" fill="#1B3A5C"/></g><text x="102" y="82" font-family="system-ui,-apple-system,'Segoe UI',Roboto,Helvetica,Arial,sans-serif" font-size="23" fill="#14130F" font-weight="600" text-anchor="start" letter-spacing="0">Countorra</text><text x="584" y="82" font-family="ui-monospace,SFMono-Regular,Menlo,Consolas,'Liberation Mono',monospace" font-size="15" fill="#8A8577" font-weight="600" text-anchor="end" letter-spacing="0.1em">PREPARATION</text><line x1="56" y1="112" x2="584" y2="112" stroke="#E7E5DF" stroke-width="1.5"/><text x="56" y="172" font-family="system-ui,-apple-system,'Segoe UI',Roboto,Helvetica,Arial,sans-serif" font-size="35" fill="#14130F" font-weight="600" text-anchor="start" letter-spacing="-0.015em">Tax year 2026</text><text x="56" y="254" font-family="system-ui,-apple-system,'Segoe UI',Roboto,Helvetica,Arial,sans-serif" font-size="21" fill="#201F1B" font-weight="400" text-anchor="start" letter-spacing="0">Income</text><rect x="466.0" y="228" width="118.32" height="36" rx="999" fill="#E4F1EB"/><text x="525.16" y="252" font-family="system-ui,-apple-system,'Segoe UI',Roboto,Helvetica,Arial,sans-serif" font-size="17" fill="#1A7F5A" font-weight="600" text-anchor="middle" letter-spacing="0">Complete</text><line x1="56" y1="284" x2="584" y2="284" stroke="#E7E5DF" stroke-width="1.5"/><text x="56" y="330" font-family="system-ui,-apple-system,'Segoe UI',Roboto,Helvetica,Arial,sans-serif" font-size="21" fill="#201F1B" font-weight="400" text-anchor="start" letter-spacing="0">Deductions</text><rect x="434.5" y="304" width="149.94" height="36" rx="999" fill="#FBF0DE"/><text x="509.47" y="328" font-family="system-ui,-apple-system,'Segoe UI',Roboto,Helvetica,Arial,sans-serif" font-size="17" fill="#A15C07" font-weight="600" text-anchor="middle" letter-spacing="0">2 to review</text><line x1="56" y1="360" x2="584" y2="360" stroke="#E7E5DF" stroke-width="1.5"/><text x="56" y="406" font-family="system-ui,-apple-system,'Segoe UI',Roboto,Helvetica,Arial,sans-serif" font-size="21" fill="#201F1B" font-weight="400" text-anchor="start" letter-spacing="0">Payments</text><rect x="466.0" y="380" width="118.32" height="36" rx="999" fill="#E4F1EB"/><text x="525.16" y="404" font-family="system-ui,-apple-system,'Segoe UI',Roboto,Helvetica,Arial,sans-serif" font-size="17" fill="#1A7F5A" font-weight="600" text-anchor="middle" letter-spacing="0">Complete</text><line x1="56" y1="436" x2="584" y2="436" stroke="#E7E5DF" stroke-width="1.5"/><rect x="56" y="468" width="528" height="110" rx="16" fill="#E9EEF3"/><text x="82" y="508" font-family="ui-monospace,SFMono-Regular,Menlo,Consolas,'Liberation Mono',monospace" font-size="15" fill="#1B3A5C" font-weight="600" text-anchor="start" letter-spacing="0.08em">ESTIMATED FEDERAL TAX</text><text x="82" y="556" font-family="ui-monospace,SFMono-Regular,Menlo,Consolas,'Liberation Mono',monospace" font-size="44" fill="#14130F" font-weight="600" text-anchor="start" letter-spacing="-0.02em">$9,412.00</text></svg>